<svg width="317" height="145" viewBox="0 0 317 145" fill="none" xmlns="http://www.w3.org/2000/svg">
<path d="M7.26 70.24C4.92 70.24 3.23 69.66 2.19 68.5C1.15 67.34 0.63 65.47 0.63 62.89V60.37H5.7V63.58C5.7 64.86 6.11 65.5 6.93 65.5C7.39 65.5 7.71 65.37 7.89 65.11C8.07 64.83 8.16 64.37 8.16 63.73C8.16 62.89 8.06 62.2 7.86 61.66C7.66 61.1 7.4 60.64 7.08 60.28C6.78 59.9 6.23 59.32 5.43 58.54L3.21 56.32C1.49 54.64 0.63 52.78 0.63 50.74C0.63 48.54 1.13 46.87 2.13 45.73C3.15 44.57 4.63 43.99 6.57 43.99C8.89 43.99 10.56 44.61 11.58 45.85C12.6 47.07 13.11 48.99 13.11 51.61H7.86L7.83 49.84C7.83 49.5 7.73 49.23 7.53 49.03C7.35 48.83 7.09 48.73 6.75 48.73C6.35 48.73 6.05 48.84 5.85 49.06C5.65 49.28 5.55 49.58 5.55 49.96C5.55 50.8 6.03 51.67 6.99 52.57L9.99 55.45C10.69 56.13 11.27 56.78 11.73 57.4C12.19 58 12.56 58.72 12.84 59.56C13.12 60.38 13.26 61.36 13.26 62.5C13.26 65.04 12.79 66.97 11.85 68.29C10.93 69.59 9.4 70.24 7.26 70.24ZM14.7281 70V44.23H19.7081V70H14.7281ZM27.885 70.24C25.545 70.24 23.855 69.66 22.815 68.5C21.775 67.34 21.255 65.47 21.255 62.89V60.37H26.325V63.58C26.325 64.86 26.735 65.5 27.555 65.5C28.015 65.5 28.335 65.37 28.515 65.11C28.695 64.83 28.785 64.37 28.785 63.73C28.785 62.89 28.685 62.2 28.485 61.66C28.285 61.1 28.025 60.64 27.705 60.28C27.405 59.9 26.855 59.32 26.055 58.54L23.835 56.32C22.115 54.64 21.255 52.78 21.255 50.74C21.255 48.54 21.755 46.87 22.755 45.73C23.775 44.57 25.255 43.99 27.195 43.99C29.515 43.99 31.185 44.61 32.205 45.85C33.225 47.07 33.735 48.99 33.735 51.61H28.485L28.455 49.84C28.455 49.5 28.355 49.23 28.155 49.03C27.975 48.83 27.715 48.73 27.375 48.73C26.975 48.73 26.675 48.84 26.475 49.06C26.275 49.28 26.175 49.58 26.175 49.96C26.175 50.8 26.655 51.67 27.615 52.57L30.615 55.45C31.315 56.13 31.895 56.78 32.355 57.4C32.815 58 33.185 58.72 33.465 59.56C33.745 60.38 33.885 61.36 33.885 62.5C33.885 65.04 33.415 66.97 32.475 68.29C31.555 69.59 30.025 70.24 27.885 70.24Z" fill="#41414D"/>
<path d="M13.36 98V77.18H10.3V72.23H21.58V77.18H18.52V98H13.36ZM23.0345 98V72.23H33.3545V77.21H28.2845V82.22H33.1445V87.08H28.2845V92.99H33.6845V98H23.0345Z" fill="#41414D"/>
<path d="M43.762 113V27.959H69.7L76.828 79.835L83.956 27.959H110.092V113H94.549V51.719L84.748 113H69.502L59.107 51.719V113H43.762ZM115.348 113L123.565 27.959H152.374L160.492 113H144.355L143.167 99.239H132.871L131.881 113H115.348ZM134.158 85.676H141.88L138.118 42.413H137.326L134.158 85.676ZM185.475 113.792C179.271 113.792 174.288 111.845 170.526 107.951C166.83 104.057 164.982 98.711 164.982 91.913V52.709C164.982 44.261 166.665 37.892 170.031 33.602C173.397 29.312 178.677 27.167 185.871 27.167C192.141 27.167 197.19 28.883 201.018 32.315C204.846 35.747 206.76 40.697 206.76 47.165V61.817H189.831V49.244C189.831 46.802 189.534 45.119 188.94 44.195C188.346 43.271 187.323 42.809 185.871 42.809C184.353 42.809 183.297 43.337 182.703 44.393C182.175 45.449 181.911 47 181.911 49.046V91.715C181.911 93.959 182.241 95.609 182.901 96.665C183.561 97.655 184.551 98.15 185.871 98.15C188.511 98.15 189.831 96.005 189.831 91.715V76.37H206.958V92.408C206.958 106.664 199.797 113.792 185.475 113.792ZM212.565 113V27.959H229.593V98.546H247.116V113H212.565ZM251.121 113V27.959H267.555V113H251.121ZM282.164 113L271.67 27.86H287.906L294.143 85.775L299.687 27.86H315.923L305.429 113H282.164Z" fill="#0058B3"/>
</svg>
